<svg width="40" height="40" viewBox="0 0 40 40" fill="none" xmlns="http://www.w3.org/2000/svg" class="dark:block"><path d="M20.1 15.817a5.837 5.837 0 011.1-1.527c.977-.977 2.565-1.1 3.908-.794.407.122.774.326 1.1.61l.244.184.366.305h.061l.061-.366.061-.733c0-.163-.06-.264-.183-.305a4.363 4.363 0 00-1.1-.245l-1.71-.122c-.67-.06-1.953-.183-1.831-1.16.06-.794.794-1.527 1.404-2.015a14.715 14.715 0 013.726-2.443c.794-.366 1.587-.672 2.381-.794l1.71-.122c.55.061.61.55.367.916a2.628 2.628 0 01-.672.672l-1.649 1.465v.062a6.72 6.72 0 011.832.122c.794.183 1.466.61 1.466 1.465.06.611-.367 1.344-.794 1.832-.489.489-1.1.978-1.71 1.405v.061c.55 0 .977.122 1.343.489.733.57 1.181 1.323 1.344 2.26h.061c.448 0 .916.06 1.405.182.427.183 1.038.428 1.404.733.855.672 1.466 1.771 1.71 2.81a5.574 5.574 0 010 2.32c-.081.326-.265.57-.55.733a.06.06 0 00-.06.06c-.184.306-.306.673-.55.978l-.245.427c-.488.55-1.343 1.039-2.015 1.222l-.183.122-.244.305-.306.916c.041.122.123.224.245.306.529.244.956.671 1.282 1.282.122.244.244.489.183.733-.081.285-.285.427-.61.427a.061.061 0 00-.061.062c.183.427.366 1.038.06 1.404-.08.081-.183.102-.305.061l-.06.061v.244c.06.245.182.672-.062.916-.244.245-.55.184-.855.061l-1.832-.61c-.407-.163-.997-.305-1.77-.428l-1.222-.06-1.405.06-.977.061H23.46l-1.16-.122a4.835 4.835 0 00-1.71.061l-1.282.184c-.204 0-.387.04-.55.122l-.794.183-1.71.366-2.076.428c-1.283.244-1.16-.977-.916-1.71.163-.448.407-.875.733-1.282v-.062c-.428.184-.794.306-1.222.367-.488.06-.916-.183-.855-.794.041-.366.184-.713.428-1.038l-.061-.061c-.367.122-1.039.122-1.16-.306-.123-.366.06-.794.305-1.099a3.471 3.471 0 011.282-.977v-.061c-1.343-.061-2.565-.428-3.847-.916a7.567 7.567 0 01-3.298-2.687l-.733-1.038c-.285-.489-.529-.998-.733-1.527 0-.081-.04-.142-.122-.183l-.06-.061c-.49.06-.917-.061-1.222-.489-.244-.366-.346-.814-.305-1.343 0-.672.244-1.283.488-1.894.489-1.404 1.344-2.87 2.504-3.908l.916-.794c1.221-.977 2.87-1.77 4.458-1.832.774-.04 1.527-.02 2.26.061 1.547.204 2.89.774 4.03 1.71.733.61 1.405 1.364 2.015 2.26.428.55.794 1.16 1.038 1.832 0 .04 0 .04 0 0zm3.36-5.313a2.23 2.23 0 00-.672.977c-.082.163-.102.285-.062.366.062.306.916.428 1.222.428.733.081 1.608.122 2.626.122l2.015.244c.082 0 .122.04.122.122 0 .184-.183.245-.305.245h-.55c-.122 0-.305.122-.305.305 0 .57-.061 1.201-.183 1.893 0 .082.04.082.122 0l.733-.427c.122-.123.346-.245.671-.367.794-.366 1.527-.977 2.199-1.588.488-.427.916-.855 1.1-1.465.182-.61-.245-1.1-.856-1.222a2.704 2.704 0 00-.855-.122l-2.076.061c-.163 0-.224-.081-.183-.244 0-.081.06-.183.183-.305l1.1-.916 1.098-.977.672-.733V6.84c-.794 0-1.588.06-2.32.305a3.479 3.479 0 00-.978.366 15.007 15.007 0 00-3.908 2.443l-.61.55zM4.222 19.603l.855-.244 2.381-1.038.367-.062c.55-.06.55.733.61 1.1 0 .57.123 1.079.367 1.526.244.428.733.55 1.221.55.652-.04 1.323-.142 2.015-.305l2.199-.428.733-.183.366-.061c.367.061.489.428.55.733l.06.794c0 .163-.08.264-.243.305-.123 0-.306-.122-.306-.244v-.306l-.06-.305-.062-.366-.061-.061-.183.06-3.176.672-1.527.184c-.793.06-1.526 0-1.954-.733a2.65 2.65 0 01-.427-.977l-.122-.55v-.855h-.061l-1.65.672-1.098.488v.428l.366 1.221c.692 1.425 1.71 2.504 3.053 3.237l.306.183c.895.407 1.77.692 2.626.855a10.69 10.69 0 002.198.244 6.344 6.344 0 002.26-.55 6.965 6.965 0 001.893-1.16l.244-.183a6.27 6.27 0 001.16-1.587l.245-.611c.325-.896.529-1.832.61-2.81l-.06-1.404a6.648 6.648 0 00-.49-2.198c-.244-.489-.549-.998-.915-1.527a9.417 9.417 0 00-1.955-2.076l-.366-.306c-1.1-.733-2.32-1.1-3.603-1.221l-1.221-.061c-2.626 0-4.886 1.526-6.535 3.542-.794 1.038-1.343 2.32-1.77 3.603-.184.61-.245 1.221.06 1.77.123.204.285.306.489.306l.61-.061zm17.526 1.954c-.488-.06-1.038-.244-1.343-.671 0 .793.61 1.587 1.282 1.893l1.038.305c.55.122.977 0 1.466-.305.55-.367 1.1-.794 1.405-1.344.203-.326.346-.672.427-1.038.204-.57.387-1.221.55-1.954.122-.794.244-1.527.122-2.32-.122-.428-.244-.856-.489-1.222-.04-.041-.06-.02-.06.06a7.756 7.756 0 01-.978 4.886 2.32 2.32 0 01-.55.672 3.787 3.787 0 01-2.87 1.038zm.123-2.015a.928.928 0 00-.245.488v.428l.122.366.123.184.122.122.06.06c.611 0 1.161-.162 1.65-.488.488-.305.916-.672 1.22-1.221a.06.06 0 00-.06-.061l-.122-.183-.184-.061-.122-.123h-.122v-.06l-.55-.062-.122.061a.123.123 0 01-.122 0l-.183.061h-.122c.53-.61.753-1.343.672-2.198-.122-1.1-1.222-1.954-2.26-1.16-.55.366-.794.977-.916 1.587-.183.916.183 2.077 1.16 2.26zm5.801.61a2.159 2.159 0 00-.427.794l-.123.49v.06c.407.407.916.57 1.527.489.733-.041 1.323-.306 1.771-.794l.122-.183.061-.306.061-.244v-.366l-.122-.306-.305-.244-.366-.183c.203-.407.285-.855.244-1.344-.061-.855-.672-1.649-1.588-1.404-.61.122-1.038.671-1.221 1.221a2.562 2.562 0 00-.184 1.221c.041.448.224.815.55 1.1zm4.03 1.527c.367-.793.55-1.832.672-2.687a6.01 6.01 0 000-1.71c0-.244-.04-.468-.122-.671h-.06v1.587c-.184.977-.428 1.832-.978 2.688a3.299 3.299 0 01-2.87 1.526c-.55 0-1.038-.244-1.466-.672v.062l.244.732c.245.55.977.977 1.588 1.16.285.123.59.123.916 0 1.038-.305 1.588-1.099 2.076-2.015zm2.016 3.054v1.282c.244-.04.509-.142.794-.305.427-.183.855-.428 1.099-.794.244-.244.366-.672.55-.977v-.061H36.1l-.55-.305h-.121l-.122.244c-.123.244-.489.183-.489-.122 0-.55.489-.855 1.038-.611.306.183.672.489.977.122.122-.122.184-.366.184-.55a4.802 4.802 0 000-1.526l-.123-.367c-.203-.773-.55-1.425-1.038-1.954a2.563 2.563 0 00-1.282-.855c-.244-.163-.468-.244-.672-.244-.428-.061-.672.244-.855.55l-.061.305-.122.672a8.615 8.615 0 01-.428 1.893l.061.06.184.245c.529.774.855 1.649.977 2.626l.06.672zm-11.237-1.16c-1.038-.184-1.832-.611-2.26-1.527h-.06l-.611 1.16c-.428.733-.977 1.282-1.649 1.832-.61.448-1.282.835-2.015 1.16h-.061c-.041.326 0 .59.122.794.244.306.55.611.855.794l.305.306c.428.427 1.038.916 1.588 1.099.305.122.55.305.794.55l.672.732.61.733a.414.414 0 00.306.122 19.81 19.81 0 002.564.61c.937.164 1.894.204 2.87.123l1.466-.305a8.217 8.217 0 001.65-.733 6 6 0 001.037-.733c.489-.448.876-.855 1.16-1.221.326-.367.611-.896.856-1.588.244-.61.386-1.201.427-1.771v-.306a9.173 9.173 0 00-.855-3.602h-.06c-.49 1.16-1.222 2.076-2.505 2.442-.794.244-1.587-.06-2.26-.55-.854-.549-1.037-1.343-1.16-2.32 0-.04 0-.04 0 0-.427.855-1.16 1.527-1.954 1.954-.57.326-1.18.407-1.832.245zM11.734 28.58h.428l.732-.244.245-.122c.651-.53 1.425-.774 2.32-.733l.061-.061c0-.245-.488-.428-.671-.489-1.039-.244-2.26.244-2.932 1.038a1.064 1.064 0 00-.305.55v.061h.122zm1.405.428l-.428.55c-.122.203-.203.467-.244.793.204.04.448.02.733-.061.488-.183.977-.366 1.526-.427h.061c.611-.55 1.344-.855 2.199-.916v-.061c-.122-.408-.428-.672-.916-.794a3.224 3.224 0 00-1.527 0 2.65 2.65 0 00-.977.427l-.183.183-.244.306zm19.908-.489l-.244.428h.06l.245.183.489.427.305.245.61.244v-.061c0-.183-.121-.306-.244-.489a2.44 2.44 0 00-1.221-.977c0-.04 0-.04 0 0-.04 0-.04 0 0 0zm-.916 1.527l-.366.244v.061l.61.244.122.062c.245.08.448.203.611.366l.367.183.55.428h.06l-.06-.367a4.454 4.454 0 00-.673-1.221 1.937 1.937 0 00-.732-.55h-.061l-.428.55zm-16.855.122c-.651.489-1.12 1.058-1.405 1.71a2.256 2.256 0 00-.183 1.16.122.122 0 00.122.061h.306l1.221-.244 1.221-.305 1.1-.184 1.038-.305c.326-.081.55-.244.672-.488.163-.285.163-.59 0-.916a2.299 2.299 0 00-.672-.733c-.163-.163-.326-.265-.489-.306l-1.221-.122c-.61.04-1.18.265-1.71.672zm15.512 1.038a1.803 1.803 0 00-.642.53.122.122 0 00.03.142l.245.122 1.344.366 1.71.55h.183l.06-.183c-.08-.774-.467-1.283-1.16-1.527-.162-.081-.285-.102-.366-.061-.427-.061-1.038-.122-1.404.061z" fill="#564341"></path><path d="M31.337 10.138l-.061.06v.062l-.306.732-.366.306-.794.366-1.527.306h-1.038l-.916-.123-1.527-.366-.427-.183-.366-.183-.306-.306-.06-.06-.062-.062-.06-.06-.062-.123.61-.55a15.003 15.003 0 013.91-2.442c.284-.163.61-.285.976-.367.733-.244 1.527-.305 2.32-.305v.06l-.671.734-1.1.977-1.099.916c-.122.122-.183.224-.183.305-.04.163.02.244.183.244l2.077-.06c.326 0 .61.04.855.122z" fill="#FFE868"></path><path d="M31.337 10.137c.61.122 1.038.61.855 1.222-.183.61-.61 1.038-1.1 1.465-.67.61-1.404 1.222-2.198 1.588-.325.122-.55.244-.671.366l-.733.428c-.082.081-.122.081-.122 0 .122-.692.183-1.323.183-1.893 0-.183.183-.306.305-.306h.55c.122 0 .305-.06.305-.244 0-.081-.04-.122-.122-.122l-2.015-.244c-1.018 0-1.893-.041-2.626-.122-.306 0-1.16-.123-1.222-.428-.04-.081-.02-.203.062-.366a2.23 2.23 0 01.671-.977l.061.122.061.06.061.062.061.061.306.305.366.183.428.184 1.526.366.916.122h1.039l1.526-.305.794-.367.367-.305.305-.733v-.06l.061-.062z" fill="#FFBB49"></path><path d="M16.192 11.725l-.489.123h-.061l-.122.06-.061.062a.062.062 0 01-.061 0h-.061l-.061.06-.123.062h-.06l-.062.06h-.06l-.062.062h-.06c-.082 0-.143.04-.184.122h-.183a.06.06 0 01-.038.056.06.06 0 01-.023.005l-.122.061h-.49l-.06.061H12.71l-.061.061h-.489l-.061.061h-.305l-.061.061c-.55-.793-1.466-.977-2.382-.854-1.038.183-2.199.671-2.87 1.465-.672.794-.794 1.771-.245 2.626-.122 0-.183.04-.183.122l-.06.061-.184.183v.123l-.244.183v.122l-.122.061v.061a.061.061 0 010 .061l-.123.061v.122l-.122.122-.06.062v.122l-.062.06a.061.061 0 010 .062l-.122.122-.061.061v.061a.061.061 0 010 .061l-.061.061v.061l-.061.061v.061c-.082.041-.102.082-.061.123a.061.061 0 01-.061.06v.123c-.082.04-.102.081-.061.122a.061.061 0 01-.062.061v.122l-.06.122v.061c-.082.041-.102.082-.062.122a.061.061 0 010 .062l-.06.122-.062.06v.062l-.06.06v.245l-.612.061c-.203 0-.366-.102-.488-.305-.305-.55-.244-1.16-.061-1.771.427-1.283.977-2.565 1.77-3.603 1.65-2.015 3.91-3.542 6.535-3.542l1.222.06c1.282.123 2.503.49 3.603 1.222z" fill="#FFC98A"></path><path d="M16.192 11.725l.367.305v.062h.06v.06h-.121l-.122.062h-.062l-.183.06a.121.121 0 00-.06 0h-.123l-.061.062-.244.06-.061.062h-.122l-.062.061h-.06l-.123.183h-.06a.06.06 0 00-.062 0l-.122.122-.061.061-.122.062v.06l-.428.184h-.122l-.122.06h-.366l-.123.062H12.59v.061h-.305l-.183.061-.122-.305-.245-.428.061-.06h.306l.06-.062h.49l.06-.061h1.039l.06-.061h.49l.121-.061a.06.06 0 00.057-.038.061.061 0 00.005-.023h.183c.04-.082.101-.122.183-.122h.06l.062-.061h.061l.061-.062h.061l.122-.06.061-.062h.062a.062.062 0 00.06 0l.062-.06.122-.062h.06l.49-.122z" fill="#FFC293"></path><path d="M11.734 12.703l.244.427-.244-.061-.244-.122H11l-.55.122-.06.06h-.062l-.122.062-.366.122a8.343 8.343 0 00-2.382 1.405l-.733.732-.122.184h.061v.305a.061.061 0 000 .061l.489.428.122.122c.081.04.102.102.061.183a1.342 1.342 0 01-.55-.244 1.764 1.764 0 01-.55-.55c-.549-.855-.427-1.832.245-2.626.672-.794 1.832-1.282 2.87-1.466.916-.122 1.832.062 2.382.856z" fill="#FFFBD8"></path><path d="M16.559 12.03a9.417 9.417 0 011.954 2.077c.203.732.305 1.343.305 1.832v1.343c0 .733-.122 1.405-.488 2.076l-.916 1.405a13.277 13.277 0 01-4.031 3.298c-.692.366-1.364.61-2.015.733l-2.138.183-.488.06-.306-.182c-1.343-.733-2.36-1.812-3.053-3.237l-.366-1.221c.57-.122 1.14-.163 1.71-.122.305 0 .671 0 .916.244.244.244.468.59.671 1.038.163.326.448.509.855.55.489.081.998.081 1.527 0l4.153-.733c.162-.04.264 0 .305.122l.244.244v.306c0 .122.184.244.306.244.162-.04.244-.143.244-.305l-.061-.794c-.061-.306-.183-.672-.55-.733l-.366.06-.733.184-2.198.427c-.693.163-1.364.265-2.016.306-.488 0-.977-.122-1.221-.55a3.136 3.136 0 01-.367-1.527c-.06-.366-.06-1.16-.61-1.099l-.367.061-2.381 1.038v-.06h.06l.062-.062-.061-.06.06-.062v-.06a.061.061 0 010-.062l.062-.061v-.061l.061-.061v-.061l.061-.061a.061.061 0 010-.061l.061-.061v-.061l.061-.062v-.06c.082-.041.102-.082.061-.123a.061.061 0 010-.06l.061-.062a.06.06 0 01.061-.06v-.123l.061-.061a.061.061 0 010-.061l.123-.122.06-.061v-.123l.062-.06v-.062l.122-.06v-.123l.122-.061v-.122l.183-.122v-.122l.183-.122v-.062l.123-.122h.06c.163.122.347.204.55.245l.55.122c1.465.305 2.931-.489 3.725-1.65.407-.528.57-1.119.489-1.77l.183-.061h.305v-.061h1.038l.122-.061h.367l.122-.061h.122l.428-.184v-.06l.122-.062.06-.06.123-.123a.062.062 0 01.061 0h.061l.122-.183h.061l.061-.061h.123l.06-.061.245-.061.06-.062h.123a.124.124 0 01.061 0l.183-.06h.061l.122-.062h.123v-.06h-.061v-.062zm-5.13 5.191c.081.285.285.468.61.55.672.183 1.344-.061 1.894-.489.55-.427.977-1.221.427-1.893a.928.928 0 00-.488-.244c-.733-.245-1.527.244-2.016.794l-.305.427c-.183.244-.244.61-.122.855z" fill="#FFBC9C"></path><path d="M11.979 13.13l.122.305a2.329 2.329 0 01-.489 1.77l.183-.488v-.122l.123-.305c.04-.082.02-.163-.062-.244h-.488l-.122.06a.06.06 0 00-.061 0l-.123.062h-.06l-.123.06h-.06v.062h-.062l-.122.06h-.061l-.122.062h-.061l-.122.061h-.062l-.06.061h-.123l-.06.061-.367.122-.428.245-.06.06-.123.123-.183.183a.062.062 0 01-.061 0H8.68l-.122.183h-.122l-.306.367H8.01l-.488.488v.244l.06.062.306.183-.55-.122c.041-.082.02-.143-.06-.184l-.123-.122L6.666 16a.061.061 0 010-.061v-.306h-.062l.123-.183.732-.733a8.344 8.344 0 012.382-1.404l.367-.122.122-.062h.06l.062-.06.55-.123h.488l.244.122.245.062z" fill="#FFFDEB"></path><path d="M11.612 15.206c-.794 1.16-2.26 1.954-3.725 1.65l-.305-.184-.061-.061v-.245l.488-.488h.122l.306-.367h.122l.122-.183h.06a.06.06 0 00.062 0l.183-.183.122-.122.061-.061.428-.244.366-.123.061-.06h.123l.06-.062h.062l.122-.06h.06l.123-.062h.061l.122-.06h.061v-.062h.061l.122-.061h.062l.122-.061a.06.06 0 01.06 0l.123-.061h.488c.082.081.102.163.062.244l-.123.306v.122l-.183.488z" fill="#fff"></path><path d="M18.513 14.107c.366.53.672 1.038.916 1.527.285.692.448 1.425.489 2.198v.672l-.062.61a11.81 11.81 0 01-.671 2.688l-.245.55h-.183l-.183.182h-.122l-.61.367-.367.244-.306.183-.488.306-.61.244a9.945 9.945 0 01-1.528.61l-2.076.428-.427.061h-.122l-.123.061h-.55l-.549.061H9.658c-.122.041-.265 0-.428-.122l2.138-.183c.651-.122 1.323-.367 2.015-.733a13.277 13.277 0 004.03-3.298l.917-1.404c.366-.672.488-1.344.488-2.077V15.94c0-.489-.102-1.1-.305-1.832z" fill="#F28773"></path><path d="M20.406 20.886c.305.427.855.61 1.343.671 1.1.061 2.016-.305 2.87-1.038.204-.163.387-.387.55-.672a7.755 7.755 0 00.977-4.885c0-.082.02-.102.061-.061.245.366.367.794.489 1.221.122.794 0 1.527-.122 2.32a16.448 16.448 0 01-.55 1.955 3.294 3.294 0 01-.427 1.038c-.306.55-.855.977-1.405 1.344-.488.305-.916.427-1.465.305l-1.039-.305c-.671-.306-1.282-1.1-1.282-1.893zm-8.977-3.665c-.122-.244-.061-.61.122-.855l.305-.427c.489-.55 1.283-1.038 2.015-.794.204.04.367.122.49.244.549.672.121 1.466-.428 1.893-.55.428-1.222.672-1.893.489-.326-.082-.53-.265-.611-.55z" fill="#fff"></path><path d="M23.215 19.053c-.366.407-.814.57-1.343.489-.977-.184-1.344-1.344-1.16-2.26.122-.61.366-1.221.916-1.588 1.038-.794 2.137.061 2.26 1.16.08.856-.143 1.588-.673 2.2z" fill="#fff"></path><path d="M6.238 15.939c.122.203.305.387.55.55h-.062l-.122.122v.06l-.183.123v.122l-.183.122v.122l-.122.061v.122l-.122.062v.06l-.061.062v.122l-.061.061-.123.122a.061.061 0 000 .061l-.06.061v.122a.06.06 0 00-.057.038.06.06 0 00-.005.023l-.06.061a.061.061 0 000 .062c.04.04.02.081-.062.122v.06l-.061.062v.06l-.061.062a.061.061 0 000 .061l-.061.061v.061l-.061.061v.061l-.061.061a.061.061 0 000 .061v.061l-.061.062.06.06-.06.062h-.061v.06l-.855.245v-.244l.06-.061v-.061l.062-.061.06-.122a.061.061 0 000-.062c-.04-.04-.02-.081.062-.122v-.06l.061-.123v-.122a.06.06 0 00.061-.061c-.04-.04-.02-.082.061-.122v-.122a.061.061 0 00.061-.062c-.04-.04-.02-.08.061-.122v-.06l.061-.062v-.06l.061-.062a.061.061 0 000-.061v-.061l.061-.061.123-.122a.061.061 0 000-.061l.06-.061v-.123l.062-.06.122-.123v-.122l.122-.06a.061.061 0 000-.062v-.061l.122-.061v-.122l.244-.184v-.122l.184-.183.06-.06c0-.082.062-.123.184-.123z" fill="#FFC293"></path><path d="M29.872 19.359c-.204.407-.469.712-.794.916-.489.285-.957.244-1.405-.122a1.598 1.598 0 01-.55-1.1c-.04-.407.02-.814.184-1.22.183-.55.61-1.1 1.221-1.222.916-.245 1.527.55 1.588 1.404.04.489-.04.937-.244 1.344z" fill="#fff"></path><path d="M31.703 21.68c-.488.916-1.038 1.71-2.076 2.015-.326.122-.631.122-.916 0-.61-.183-1.343-.61-1.588-1.16l-.244-.733v-.061c.427.427.916.671 1.466.671 1.22 0 2.198-.55 2.87-1.526.55-.855.794-1.71.977-2.687V16.61h.061c.081.203.122.427.122.672a6.01 6.01 0 010 1.71c-.122.855-.305 1.893-.672 2.687z" fill="#fff"></path><path d="M34.574 17.954c.04.122.122.224.244.306v.122l.183.122v.061a.06.06 0 000 .061l.245.183v.122l.183.122v.123l.183.122v.122l.122.061v.122l.122.061v.061a.06.06 0 000 .061l.245.184v.122l.122.122h.122v.122h.061l.489.427.122.367c.081.53.081 1.038 0 1.527 0 .183-.061.427-.184.55-.305.366-.671.06-.977-.123-.55-.244-1.038.061-1.038.61 0 .306.367.367.489.123l.122-.244h.122l.55.305c-.407.651-.957 1.1-1.65 1.343h-.243c-.306-.06-.367-.183-.489-.488l-.061-.672a5.865 5.865 0 00-.977-2.626l-.183-.244-.061-.061c.203-.57.346-1.201.427-1.893l.122-.672.061-.305c.183-.306.428-.611.855-.55.204 0 .428.081.672.244z" fill="#F28773"></path><path d="M19.917 17.832l.06 1.405a10.812 10.812 0 01-.61 2.809l-.244.61a6.268 6.268 0 01-1.16 1.588l-.245.183a6.968 6.968 0 01-1.893 1.16l.489-.366.244-.183.244-.244a8.335 8.335 0 002.138-2.443l.244-.55c.326-.854.55-1.75.672-2.686l.06-.611v-.672z" fill="#AD6560"></path><path d="M34.574 17.954c.53.163.957.448 1.283.855.488.53.834 1.18 1.038 1.954l-.489-.427h-.06v-.122h-.123l-.122-.122v-.123l-.244-.183a.061.061 0 010-.06v-.062l-.123-.061v-.122l-.122-.061v-.122l-.183-.122v-.123l-.183-.122v-.122l-.244-.183a.061.061 0 010-.061v-.061l-.184-.122v-.123a.589.589 0 01-.244-.305z" fill="#F4986E"></path><path d="M7.825 19.664l-.06-.244c-.062-.122-.123-.245-.306-.245l-.55.123-.794.183 1.65-.672h.06v.855z" fill="#AD6560"></path><path d="M21.871 19.542c.53.081.977-.082 1.344-.489h.122l.183-.06a.122.122 0 00.122 0l.122-.062.55.061v.061h.122l.122.122.183.061.123.184a.061.061 0 01.06.06c-.305.55-.732.917-1.22 1.222a2.906 2.906 0 01-1.65.489l-.06-.061-.123-.122-.122-.184-.122-.366v-.428a.929.929 0 01.244-.488z" fill="#81564F"></path><path d="M7.826 19.664l.122.55c.081.366.224.692.427.977.428.733 1.16.794 1.955.733l1.526-.183 3.176-.672c.183 0 .244.244.305.366l.061.306-.244-.245c-.04-.122-.143-.162-.305-.122l-4.153.733a4.801 4.801 0 01-1.527 0c-.407-.04-.692-.224-.855-.55-.203-.447-.427-.793-.671-1.038-.245-.244-.611-.244-.916-.244-.57-.04-1.14 0-1.71.122v-.427l1.099-.489.794-.183.55-.122c.183 0 .244.122.305.244l.06.244z" fill="#F28773"></path><path d="M29.871 19.359l.367.183.305.244.122.306v.366l-.061.244-.061.306-.122.183c-.448.489-1.038.753-1.771.794-.61.081-1.12-.082-1.527-.489v-.06l.122-.49c.082-.284.224-.549.428-.793.448.366.916.407 1.404.122.326-.204.59-.509.794-.916z" fill="#81564F"></path><path d="M15.338 21.435c-.061-.122-.123-.366-.306-.366l.183-.061.062.06.06.367z" fill="#AD6560"></path><path d="M29.688 24.244c.062.672.55 1.1 1.1 1.343a4.54 4.54 0 001.282.306c.367.04.713-.02 1.038-.183-.04.57-.183 1.16-.427 1.77-.244.693-.53 1.222-.855 1.588a10.27 10.27 0 01-1.16 1.222c-.326.285-.672.53-1.039.733-.57.325-1.12.57-1.648.733l-1.466.305c-.977.081-1.934.04-2.87-.122a19.814 19.814 0 01-2.565-.611.414.414 0 01-.306-.122l-.61-.733-.672-.733c-.244-.244-.489-.427-.794-.55-.55-.183-1.16-.671-1.588-1.099l-.305-.305c-.305-.183-.61-.489-.855-.794-.122-.203-.163-.468-.122-.794h.06a10.83 10.83 0 002.016-1.16l.183.061c.245.305.672.427 1.1.427a6.2 6.2 0 001.71-.244c.732-.203 1.241-.63 1.526-1.282v-.244l.061-.184a2.393 2.393 0 001.832-.244c.794-.427 1.527-1.1 1.955-1.954 0-.04 0-.04 0 0 .122.977.305 1.77 1.16 2.32.672.489 1.466.794 2.26.55zm-3.786.061c-.427-.183-.916-.366-1.038-.794l-.061-.06-.183.121c-.245.306.06.611.305.733.692.367 1.405.468 2.137.305v-.06a5.34 5.34 0 01-1.16-.245z" fill="#FFBC9C"></path><path d="M33.108 25.71a1.825 1.825 0 01-1.038.183 4.54 4.54 0 01-1.282-.306c-.55-.244-1.038-.671-1.1-1.343 1.283-.366 2.016-1.282 2.504-2.443h.062c.529 1.14.814 2.341.855 3.603v.306zm-10.625-2.138l-.062.184V24c-.285.651-.793 1.079-1.526 1.282a6.2 6.2 0 01-1.71.244c-.428 0-.855-.122-1.1-.427l-.183-.061c.672-.55 1.222-1.1 1.65-1.832l.61-1.16h.061c.427.916 1.221 1.343 2.26 1.526z" fill="#F28773"></path><path d="M18.94 22.351a8.337 8.337 0 01-2.137 2.443l-.244.244-.244.183-.489.367a6.344 6.344 0 01-2.26.55 10.69 10.69 0 01-2.198-.245 11.607 11.607 0 01-2.626-.855l.489-.061c.163.122.305.163.427.122h1.038l.55-.06h.55l.122-.062h.122l.427-.061 2.077-.428a9.95 9.95 0 001.526-.61l.611-.244.489-.306.305-.183.366-.244.611-.367h.122l.183-.183h.184z" fill="#F67954"></path><path d="M25.901 24.305a5.34 5.34 0 001.16.244v.061c-.732.163-1.444.062-2.137-.305-.244-.122-.55-.427-.305-.733l.183-.122.061.061c.122.428.611.611 1.038.794z" fill="#564341"></path><path d="M36.1 23.878h.061v.061c-.183.305-.305.733-.55.977-.243.366-.67.61-1.098.794-.285.163-.55.265-.794.305v-1.282c.122.305.183.427.488.488h.245c.692-.244 1.241-.692 1.648-1.343z" fill="#AD6560"></path><path d="M14.849 26.931l-.367.367-1.16.61-1.588.672h-.122v-.06c.041-.204.143-.388.306-.55.671-.794 1.893-1.283 2.93-1.039z" fill="#F28773"></path><path d="M14.849 26.931c.183.061.672.244.672.489l-.061.06c-.896-.04-1.67.204-2.321.734l-.244.122-.733.244h-.428l1.588-.672 1.16-.61.367-.367z" fill="#AD6560"></path><path d="M16.07 28.092a1.377 1.377 0 01-.55.855l-.855.61-.366.184v-.184l-.061-.06h-.061l-.061-.062a.06.06 0 01-.061 0l-.061-.061h-.061l-.062-.061a.062.062 0 01-.06 0c-.041-.081-.082-.102-.123-.061a.061.061 0 01-.06-.061h-.062l-.06-.061h-.123a.061.061 0 01-.061 0l-.122-.061h-.061v-.061l.244-.306.183-.183c.285-.203.61-.346.977-.427a3.226 3.226 0 011.527 0z" fill="#F28773"></path><path d="M16.07 28.092c.488.122.794.387.916.794v.06c-.855.062-1.588.367-2.199.917h-.06c-.55.06-1.039.244-1.527.427-.285.082-.53.102-.733.061l1.282-.366.55-.244.366-.184.855-.61c.285-.204.468-.489.55-.855z" fill="#AD6560"></path><path d="M33.108 29.13l-.06-.611c-.042 0-.042 0 0 0 0-.04 0-.04 0 0 .528.203.935.53 1.22.977.123.183.245.305.245.489v.06l-.61-.244-.306-.244-.489-.427z" fill="#F67954"></path><path d="M33.047 28.519l.061.61-.244-.183h-.061l.244-.427z" fill="#AD6560"></path><path d="M13.139 29.008v.06h.06l.123.062a.06.06 0 00.06 0h.123l.061.061h.061a.061.061 0 00.061.061c.04-.04.082-.02.122.061a.062.062 0 00.061 0l.061.061h.061l.062.061a.06.06 0 00.06 0l.062.061h.06l.062.061v.184l-.55.244-1.282.366c.04-.325.122-.59.244-.794l.428-.55z" fill="#F4986E"></path><path d="M33.352 30.046l-.122.122v.06h-.061l-.244.184h-.061l-.061.061-.061.061-.245.122-.122-.06-.244-.55.427-.55h.061c.285.122.53.305.733.55z" fill="#F67954"></path><path d="M18.696 29.924l.122.366v.244a1.864 1.864 0 01-.671.916l-.855.611-1.283-1.405h-.122l-.244-.305h-.122c-.082-.122-.163-.183-.245-.183.53-.407 1.1-.631 1.71-.672l1.222.122c.163.04.325.143.488.306z" fill="#F28773"></path><path d="M18.696 29.924c.285.203.509.448.671.733.163.325.163.63 0 .916-.122.244-.346.407-.671.488l-1.039.306-1.099.183-1.221.305a13.117 13.117 0 001.954-.794l.855-.61c.326-.245.55-.55.672-.916v-.245l-.122-.366zm13.435.122l.244.55-.61-.245v-.06l.366-.245z" fill="#AD6560"></path><path d="M33.352 30.046c.285.366.509.773.672 1.221l.06.367h-.06l-.55-.428-.366-.183a1.532 1.532 0 00-.61-.366l.243-.123.062-.06.06-.062h.062l.244-.183h.061v-.061l.122-.122zm-18.076.122c.081 0 .163.061.244.183h.122l.245.306h.122l1.282 1.404c-.651.326-1.303.59-1.954.794l-1.221.244h-.306a.122.122 0 01-.122-.06c-.04-.408.02-.795.183-1.161.285-.651.753-1.221 1.405-1.71z" fill="#F4986E"></path><path d="M32.192 31.145l-.916.916-.428-.488-.06-.367c.366-.183.976-.122 1.404-.06z" fill="#F67954"></path><path d="M32.192 31.145c.082-.04.204-.02.367.06.692.245 1.079.754 1.16 1.528l-.061.183h-.183l-1.71-.55-.489-.305.916-.916z" fill="#F4986E"></path><path d="M30.788 31.206l.06.367.428.488.489.305L30.42 32l-.244-.122a.122.122 0 010-.183 1.8 1.8 0 01.61-.489z" fill="#AD6560"></path></svg>